<?xml version="1.0" encoding="utf-8"?>
<!-- Generator: Adobe Illustrator 21.0.0, SVG Export Plug-In . SVG Version: 6.00 Build 0)  -->
<svg version="1.1" xmlns="http://www.w3.org/2000/svg" xmlns:xlink="http://www.w3.org/1999/xlink" x="0px" y="0px"
	 viewBox="0 0 55.1 55" style="enable-background:new 0 0 55.1 55;" xml:space="preserve">
<style type="text/css">
	.st0{fill:none;stroke:#F84B7F;stroke-width:2;stroke-miterlimit:10;}
	.st1{fill:none;}
	.st2{fill:none;stroke:#F84B7F;stroke-width:3;stroke-miterlimit:10;}
</style>
<g id="Layer_1">
	<g id="Layer_3">
		<path class="st0" d="M27.5,1C12.9,1,1,12.9,1,27.5S12.9,54,27.5,54S54,42.1,54,27.5S42.1,1,27.5,1z"/>
		<path class="st1" d="M27.5,4.5"/>
		<path class="st1" d="M37.9,6.5C34.8,5.1,31.4,4.2,28,4c5.9,6.2,11.9,12.4,17.8,18.6c1.7,1.8,3.5,3.6,5.2,5.4
			c-0.2-8.2-3.5-15.9-10.7-20.3"/>
		<path class="st1" d="M13.5,11.5c0,0-1-5,3-2s-1,10-1,10"/>
		<line class="st1" x1="27.5" y1="4.5" x2="37.3" y2="9.8"/>
		<polyline class="st1" points="7.5,5.5 17.5,9.5 13.5,23.5 		"/>
		<line class="st1" x1="20.5" y1="15.5" x2="42.1" y2="18.7"/>
	</g>
	<g id="Layer_7">
		<path class="st0" d="M40.2,8.3c7,4.3,10.5,11.6,10.8,19.7"/>
		<path class="st0" d="M28,4c2.9,0.5,5.8,1.3,8.5,2.5"/>
	</g>
</g>
<g id="Layer_2_1_">
	<path class="st0" d="M19.5,33.6c-1.4,0.9-0.5,5.3,1.8,8.1c1.8,2.3,5.1,4.2,6.3,3.3c1.3-0.9,0.3-4.6-1.2-6.9
		C24.5,35.1,20.8,32.7,19.5,33.6z"/>
	<path class="st0" d="M19.5,21.6c-1.4,0.9-0.5,5.3,1.8,8.1c1.8,2.3,5.1,4.2,6.3,3.3c1.3-0.9,0.3-4.6-1.2-6.9
		C24.5,23.1,20.8,20.7,19.5,21.6z"/>
	<path class="st0" d="M27.8,9.5c-1.7,0-3.4,4.1-3.2,7.7c0.2,2.9,1.7,6.4,3.3,6.3c1.6,0,2.9-3.6,3-6.3C31.1,13.6,29.5,9.5,27.8,9.5z"
		/>
	<path class="st0" d="M36.6,33.6c-1.3-1-5.2,1.4-7,4.4c-1.5,2.5-2.2,6.2-0.9,7.1c1.3,0.9,4.4-1.3,6.1-3.5
		C36.9,38.9,38,34.5,36.6,33.6z"/>
	<path class="st0" d="M36.6,21.6c-1.3-1-5.2,1.4-7,4.4c-1.5,2.5-2.2,6.2-0.9,7.1c1.3,0.9,4.4-1.3,6.1-3.5
		C36.9,26.9,38,22.5,36.6,21.6z"/>
	<line class="st2" x1="27.9" y1="23.5" x2="27.9" y2="48.8"/>
</g>
</svg>
