<?xml version="1.0" encoding="utf-8"?>
<!-- Generator: Adobe Illustrator 21.0.0, SVG Export Plug-In . SVG Version: 6.00 Build 0)  -->
<svg version="1.1" id="Layer_1" xmlns="http://www.w3.org/2000/svg" xmlns:xlink="http://www.w3.org/1999/xlink" x="0px" y="0px"
	 viewBox="0 0 46 29.6" style="enable-background:new 0 0 46 29.6;" xml:space="preserve">
<style type="text/css">
	.st0{fill:none;stroke:#F84B7F;stroke-width:2;stroke-miterlimit:10;}
	.st1{fill:#F84B7F;}
	.st2{font-family:'ArialMT';}
	.st3{font-size:7.3597px;}
	.st4{fill:none;stroke:#F84B7F;stroke-width:0.5;stroke-miterlimit:10;}
	.st5{fill:none;stroke:#F84B7F;stroke-miterlimit:10;}
	.st6{fill:none;stroke:#F84B7F;stroke-width:1.5;stroke-miterlimit:10;}
</style>
<g id="Layer_1_2_">
	<g id="Layer_2">
		<path class="st0" d="M15.8,8.9c14.4-6.4,29,4.6,29.2,19.7"/>
		<path class="st0" d="M3,28.6c0.4-3.8,1.4-7.5,3.2-10.8"/>
		<line class="st0" x1="2" y1="28.6" x2="46" y2="28.6"/>
		<path class="st0" d="M36.4,14.8c-1-0.9-2.2-1.6-3.4-2.3"/>
		<path class="st0" d="M41,24.6c-0.1-3.3-1.3-6.4-3.6-8.8"/>
		<line class="st0" x1="15" y1="17.6" x2="15" y2="28.6"/>
		<line class="st0" x1="14" y1="18.6" x2="33" y2="18.6"/>
		<path class="st0" d="M33,27.6c0-1.3,0-2.6,0-4c0-2,0-4,0-6"/>
		<path class="st0" d="M32,23.6c-0.8,0.6-1.5,0.9-2,1c-0.6,0.2-1.4,0.3-2,0c-0.2-0.1-0.2-0.2-1-1c-0.5-0.5-0.8-0.8-1-1
			c-0.5-0.4-1.2-1-2-1s-1.4,0.5-2,1c-1.2,1-1.1,1.6-2,2c-0.6,0.2-1.1,0.2-2,0c-0.3-0.1-2.8-0.5-3-1.7c0-0.1,0-0.3,0-0.3"/>
		<g>
			<g>
				<path class="st0" d="M24.1,4.2c2.2,0,2.2-3,0-3C21.9,1.2,21.9,4.2,24.1,4.2L24.1,4.2z"/>
			</g>
		</g>
		<circle class="st0" cx="8" cy="10.6" r="7"/>
		<g>
			<g>
				<path class="st1" d="M15.7,9.8c0.6,0,0.6-1,0-1S15.1,9.8,15.7,9.8L15.7,9.8z"/>
			</g>
		</g>
		<g>
			<g>
				<path class="st1" d="M15.9,10c0,0,0.1,0,0.1-0.1c0.6-0.1,0.4-1.1-0.3-1c-0.2,0-0.4,0.1-0.6,0.3C14.7,9.8,15.4,10.5,15.9,10
					L15.9,10z"/>
			</g>
		</g>
		<g>
			<g>
				<path class="st1" d="M3,27.4C3,27.4,2.9,27.4,3,27.4c-0.6-0.5-1.3,0.2-0.8,0.6c0,0,0.1,0,0.1,0.1C2.8,28.6,3.5,27.9,3,27.4
					L3,27.4z"/>
			</g>
		</g>
		<g>
			<g>
				<path class="st1" d="M3.1,27.6C3,27.5,3,27.5,2.9,27.4c-0.3-0.6-1.2-0.1-0.9,0.5c0,0.1,0.1,0.2,0.2,0.2
					C2.6,28.6,3.5,28.1,3.1,27.6L3.1,27.6z"/>
			</g>
		</g>
		<text transform="matrix(1 0 0 1 3.8438 12.7227)" class="st1 st2 st3">24</text>
		<text transform="matrix(1 0 0 1 3.8438 12.7227)" class="st4 st2 st3">24</text>
	</g>
	<line class="st5" x1="24.1" y1="4.6" x2="24.1" y2="6.8"/>
</g>
<path class="st0" d="M22.5,17.8c-1.4,0.5-4.8-2.9-4-5.4c0.3-0.9,1-1.7,1.9-1.8c1.5-0.1,2.9,2.2,3.1,4.1
	C23.6,15.7,23.4,17.5,22.5,17.8z"/>
<path class="st6" d="M31.3,23.8c0.4-0.3,0.9-0.7,1.3-1"/>
<path class="st0" d="M24,18.3c0,0,3.3-10.3,6-7.2S29,15.8,29,15.8l-4.7,2.4l-0.4-0.6"/>
</svg>
