<?xml version="1.0" encoding="utf-8"?>
<!-- Generator: Adobe Illustrator 21.0.0, SVG Export Plug-In . SVG Version: 6.00 Build 0)  -->
<svg version="1.1" id="Layer_3" xmlns="http://www.w3.org/2000/svg" xmlns:xlink="http://www.w3.org/1999/xlink" x="0px" y="0px"
	 viewBox="0 0 452 452.7" style="enable-background:new 0 0 452 452.7;" xml:space="preserve">
<style type="text/css">
	.st0{fill:none;stroke:#F84B7F;stroke-width:20;stroke-miterlimit:10;}
</style>
<line class="st0" x1="0" y1="126" x2="452" y2="126"/>
<line class="st0" x1="452" y1="206.2" x2="3.5" y2="206.2"/>
<line class="st0" x1="10.2" y1="126" x2="10.2" y2="216"/>
<line class="st0" x1="189" y1="121" x2="189" y2="446.7"/>
<line class="st0" x1="35.5" y1="442.5" x2="414.2" y2="442.5"/>
<line class="st0" x1="265.5" y1="442.5" x2="265.5" y2="123.3"/>
<line class="st0" x1="265.5" y1="257.6" x2="318.8" y2="257.6"/>
<line class="st0" x1="348.2" y1="257.6" x2="369.5" y2="257.6"/>
<line class="st0" x1="189" y1="257.6" x2="131.5" y2="257.6"/>
<line class="st0" x1="106.2" y1="257.6" x2="78.8" y2="257.6"/>
<line class="st0" x1="403.7" y1="206.2" x2="403.7" y2="438"/>
<line class="st0" x1="45.2" y1="442.5" x2="45.2" y2="198.7"/>
<line class="st0" x1="441.8" y1="123.3" x2="441.8" y2="211.3"/>
<path class="st0" d="M226,123.3C226,58,167.8,10.8,113.5,10.8"/>
<path class="st0" d="M226,123.3c-79.9,0-180.8-37.2-180.8-66.7"/>
<path class="st0" d="M45.2,60c0-50,49.1-49.2,68.3-49.2"/>
<path class="st0" d="M233.4,123.3c0-65.4,58.2-112.5,112.5-112.5"/>
<path class="st0" d="M233.4,123.3c79.9,0,180.8-37.2,180.8-66.7"/>
<path class="st0" d="M414.2,60c0-50-49.1-49.2-68.3-49.2"/>
</svg>
