<?xml version="1.0" encoding="utf-8"?>
<!-- Generator: Adobe Illustrator 21.0.0, SVG Export Plug-In . SVG Version: 6.00 Build 0)  -->
<svg version="1.1" xmlns="http://www.w3.org/2000/svg" xmlns:xlink="http://www.w3.org/1999/xlink" x="0px" y="0px"
	 viewBox="0 0 46 29.6" style="enable-background:new 0 0 46 29.6;" xml:space="preserve">
<style type="text/css">
	.st0{display:none;}
	.st1{fill:none;stroke:#F84B7F;stroke-width:2;stroke-miterlimit:10;}
	.st2{fill:#F84B7F;}
	.st3{font-family:'ArialMT';}
	.st4{font-size:7.3597px;}
	.st5{fill:none;stroke:#F84B7F;stroke-width:0.5;stroke-miterlimit:10;}
	.st6{fill:none;stroke:#F84B7F;stroke-miterlimit:10;}
</style>
<g id="Layer_1">
	<g id="Layer_1_1_" class="st0">
		
			<image style="display:inline;overflow:visible;enable-background:new    ;" width="63" height="38" xlink:href="feature-3.png"  transform="matrix(0.7063 0 0 0.7063 0 2.5625)">
		</image>
	</g>
	<g id="Layer_2">
		<path class="st1" d="M1,10.6"/>
		<path class="st1" d="M15.8,8.9c14.4-6.4,29,4.6,29.2,19.7"/>
		<path class="st1" d="M3,28.6c0.4-3.8,1.4-7.5,3.2-10.8"/>
		<line class="st1" x1="2" y1="28.6" x2="46" y2="28.6"/>
		<path class="st1" d="M36.4,14.8c-1-0.9-2.2-1.6-3.4-2.3"/>
		<path class="st1" d="M41,24.6c-0.1-3.3-1.3-6.4-3.6-8.8"/>
		<line class="st1" x1="15" y1="17.6" x2="15" y2="28.6"/>
		<line class="st1" x1="14" y1="18.6" x2="33" y2="18.6"/>
		<path class="st1" d="M33,27.6c0-1.3,0-2.6,0-4c0-2,0-4,0-6"/>
		<path class="st1" d="M32,23.6c-0.8,0.6-1.5,0.9-2,1c-0.6,0.2-1.4,0.3-2,0c-0.2-0.1-0.2-0.2-1-1c-0.5-0.5-0.8-0.8-1-1
			c-0.5-0.4-1.2-1-2-1s-1.4,0.5-2,1c-1.2,1-1.1,1.6-2,2c-0.6,0.2-1.1,0.2-2,0c-0.3-0.1-2.8-0.5-3-1.7c0-0.1,0-0.3,0-0.3"/>
		<path class="st1" d="M28,12.6c-0.4-0.7-1.3-1.1-2-1c-1.3,0.3-1.7,2.2-1.9,3c0-1.1-0.3-2.3-1.1-3c-1.2-1-3.5-0.9-4,0
			c0,0.1-0.2,0.3,0,1c0.2,0.9,0.7,1.9,2,3c0.9,0.9,1.6,1.4,2.1,1.7c0-0.1,0.1-0.2,0.2-0.3c0.3-0.3,0.7-0.1,0.8,0.2
			c0.1,0,0.2,0,0.3,0c0.2,0,0.4,0.2,0.4,0.4c1.4-0.3,2.6-1.7,3.1-2.9C28.1,14.2,28.4,13.4,28,12.6z"/>
		<g>
			<g>
				<path class="st1" d="M24.1,4.2c2.2,0,2.2-3,0-3C21.9,1.2,21.9,4.2,24.1,4.2L24.1,4.2z"/>
			</g>
		</g>
		<circle class="st1" cx="8" cy="10.6" r="7"/>
		<g>
			<g>
				<path class="st2" d="M15.7,9.8c0.6,0,0.6-1,0-1S15.1,9.8,15.7,9.8L15.7,9.8z"/>
			</g>
		</g>
		<g>
			<g>
				<path class="st2" d="M15.9,10c0,0,0.1,0,0.1-0.1c0.6-0.1,0.4-1.1-0.3-1c-0.2,0-0.4,0.1-0.6,0.3C14.7,9.8,15.4,10.5,15.9,10
					L15.9,10z"/>
			</g>
		</g>
		<g>
			<g>
				<path class="st2" d="M3,27.4C3,27.4,2.9,27.4,3,27.4c-0.6-0.5-1.3,0.2-0.8,0.6c0,0,0.1,0,0.1,0.1C2.8,28.6,3.5,27.9,3,27.4
					L3,27.4z"/>
			</g>
		</g>
		<g>
			<g>
				<path class="st2" d="M3.1,27.6C3,27.5,3,27.5,2.9,27.4c-0.3-0.6-1.2-0.1-0.9,0.5c0,0.1,0.1,0.2,0.2,0.2
					C2.6,28.6,3.5,28.1,3.1,27.6L3.1,27.6z"/>
			</g>
		</g>
		<text transform="matrix(1 0 0 1 3.8438 12.7227)" class="st2 st3 st4">24</text>
		<text transform="matrix(1 0 0 1 3.8438 12.7227)" class="st5 st3 st4">24</text>
	</g>
	<line class="st6" x1="24.1" y1="4.6" x2="24.1" y2="6.8"/>
</g>
<g id="Layer_2_1_">
	<path class="st2" d="M24.5,18c0-0.1,0-0.2,0-0.3c0-0.3-0.1-0.5-0.5-0.5c-0.3,0-0.5,0.3-0.5,0.5c0,0,0,0.1,0,0.1
		c-0.3,0.3-0.2,0.9,0.3,0.9c0.1,0,0.1,0,0.2,0c0,0,0.1,0,0.1,0C24.5,18.7,24.7,18.3,24.5,18z"/>
	<path class="st2" d="M25.1,14.6c0-0.2-0.1-0.3-0.2-0.4c-0.1-0.4-0.8-0.4-1,0.1c0,0,0,0,0,0c-0.2-0.2-0.5-0.1-0.7,0.1
		C23,14.7,23.1,15,23,15.3c-0.1,0.4-0.2,0.7-0.3,1.1c-0.1,0.6,0.8,0.9,1,0.3c0-0.1,0-0.2,0.1-0.2c0,0,0,0,0,0
		c0.1,0.1,0.2,0.2,0.4,0.3c0,0,0,0,0,0.1c0,0.6,1,0.6,1,0C25.1,16.1,25.1,15.3,25.1,14.6z"/>
	<path class="st2" d="M32,22.6c-0.1,0-0.2,0-0.2,0.1c0,0,0,0,0,0c-0.5,0-0.6,0.6-0.3,0.9c0,0,0,0,0,0c0,0.2,0.2,0.5,0.5,0.5
		c0.4,0,0.5-0.4,0.4-0.7C32.6,23.1,32.5,22.6,32,22.6z"/>
</g>
</svg>
